<mxfile host="Electron" modified="2024-07-04T10:09:39.716Z" agent="Mozilla/5.0 (Windows NT 10.0; Win64; x64) AppleWebKit/537.36 (KHTML, like Gecko) draw.io/23.1.5 Chrome/120.0.6099.109 Electron/28.1.0 Safari/537.36" etag="C2lNlaR07VFrCnQIU-tN" version="23.1.5" type="device">
  <diagram name="第 1 页" id="1dNRlo4FCdIDMJeaIxBo">
    <mxGraphModel dx="463" dy="629" grid="1" gridSize="10" guides="1" tooltips="1" connect="1" arrows="1" fold="1" page="1" pageScale="1" pageWidth="827" pageHeight="1169" math="0" shadow="0">
      <root>
        <mxCell id="0" />
        <mxCell id="1" parent="0" />
        <mxCell id="gvWiW586CObNm21djsup-1" value="JsonParser.cpp" style="html=1;whiteSpace=wrap;" parent="1" vertex="1">
          <mxGeometry x="1490" y="240" width="110" height="50" as="geometry" />
        </mxCell>
        <mxCell id="gvWiW586CObNm21djsup-4" value="json11_namespace.h" style="html=1;whiteSpace=wrap;" parent="1" vertex="1">
          <mxGeometry x="1660" y="115" width="140" height="50" as="geometry" />
        </mxCell>
        <mxCell id="gvWiW586CObNm21djsup-6" value="JsonValue.h" style="html=1;whiteSpace=wrap;" parent="1" vertex="1">
          <mxGeometry x="1675" y="240" width="110" height="50" as="geometry" />
        </mxCell>
        <mxCell id="gvWiW586CObNm21djsup-8" value="Use" style="endArrow=open;endSize=12;dashed=1;html=1;rounded=0;" parent="1" source="gvWiW586CObNm21djsup-6" target="gvWiW586CObNm21djsup-4" edge="1">
          <mxGeometry width="160" relative="1" as="geometry">
            <mxPoint x="1420" y="235" as="sourcePoint" />
            <mxPoint x="1580" y="235" as="targetPoint" />
          </mxGeometry>
        </mxCell>
        <mxCell id="gvWiW586CObNm21djsup-10" value="JsonValue.cpp" style="html=1;whiteSpace=wrap;" parent="1" vertex="1">
          <mxGeometry x="1883" y="240" width="110" height="50" as="geometry" />
        </mxCell>
        <mxCell id="gvWiW586CObNm21djsup-12" value="" style="endArrow=block;dashed=1;endFill=0;endSize=12;html=1;rounded=0;" parent="1" source="gvWiW586CObNm21djsup-10" target="gvWiW586CObNm21djsup-6" edge="1">
          <mxGeometry width="160" relative="1" as="geometry">
            <mxPoint x="1370" y="295" as="sourcePoint" />
            <mxPoint x="1530" y="295" as="targetPoint" />
          </mxGeometry>
        </mxCell>
        <mxCell id="gvWiW586CObNm21djsup-13" value="Use" style="endArrow=open;endSize=12;dashed=1;html=1;rounded=0;" parent="1" source="gvWiW586CObNm21djsup-1" target="gvWiW586CObNm21djsup-6" edge="1">
          <mxGeometry width="160" relative="1" as="geometry">
            <mxPoint x="1600" y="10" as="sourcePoint" />
            <mxPoint x="1530" y="50" as="targetPoint" />
          </mxGeometry>
        </mxCell>
        <mxCell id="gvWiW586CObNm21djsup-17" value="Json.h" style="html=1;whiteSpace=wrap;" parent="1" vertex="1">
          <mxGeometry x="1490" y="380" width="110" height="50" as="geometry" />
        </mxCell>
        <mxCell id="gvWiW586CObNm21djsup-18" value="Use" style="endArrow=open;endSize=12;dashed=1;html=1;rounded=0;" parent="1" source="gvWiW586CObNm21djsup-17" target="gvWiW586CObNm21djsup-1" edge="1">
          <mxGeometry width="160" relative="1" as="geometry">
            <mxPoint x="1590" y="310" as="sourcePoint" />
            <mxPoint x="1750" y="310" as="targetPoint" />
          </mxGeometry>
        </mxCell>
        <mxCell id="gvWiW586CObNm21djsup-19" value="Json.cpp" style="html=1;whiteSpace=wrap;" parent="1" vertex="1">
          <mxGeometry x="1675" y="380" width="110" height="50" as="geometry" />
        </mxCell>
        <mxCell id="gvWiW586CObNm21djsup-20" value="" style="endArrow=block;dashed=1;endFill=0;endSize=12;html=1;rounded=0;" parent="1" source="gvWiW586CObNm21djsup-19" target="gvWiW586CObNm21djsup-17" edge="1">
          <mxGeometry width="160" relative="1" as="geometry">
            <mxPoint x="1590" y="310" as="sourcePoint" />
            <mxPoint x="1750" y="310" as="targetPoint" />
          </mxGeometry>
        </mxCell>
      </root>
    </mxGraphModel>
  </diagram>
</mxfile>
